<svg xmlns="http://www.w3.org/2000/svg" xmlns:xlink="http://www.w3.org/1999/xlink" width="1220" height="200" viewBox="0 0 1220 200">
    <defs>
        <path id="a" d="M0 0h1220v200H0z"/>
        <path id="c" d="M0 338h1012V0H0z"/>
    </defs>
    <g fill="none" fill-rule="evenodd">
        <mask id="b" fill="#fff">
            <use xlink:href="#a"/>
        </mask>
        <use fill="#D8D8D8" xlink:href="#a"/>
        <g mask="url(#b)">
            <path fill="#4B949F" d="M-4 308h1232v-411H-4z"/>
            <g transform="translate(211 -68)">
                <path fill="#154D56" d="M332.5 171.56c-17.643 0-31.94 14.297-31.94 31.939s14.297 31.943 31.94 31.943c17.641 0 31.94-14.301 31.94-31.943 0-17.642-14.299-31.938-31.94-31.938m0-7.561c21.816 0 39.5 17.682 39.5 39.499C372 225.315 354.316 243 332.5 243S293 225.315 293 203.499C293 181.682 310.684 164 332.5 164"/>
                <path fill="#1E646B" d="M450 119.866c-27.69 0-50.13 22.443-50.13 50.13 0 27.693 22.44 50.133 50.13 50.133s50.13-22.44 50.13-50.134c0-27.686-22.44-50.129-50.13-50.129M450 108c34.242 0 62 27.759 62 61.995C512 204.243 484.242 232 450 232c-34.242 0-62-27.757-62-62.005C388 135.76 415.758 108 450 108"/>
                <path fill="#237377" d="M527.37 215.24c-35.754-25.476-44.087-75.112-18.612-110.869 25.477-35.755 75.117-44.087 110.872-18.614 35.753 25.477 44.088 75.116 18.61 110.871-25.474 35.755-75.114 44.09-110.87 18.613"/>
                <path fill="#154D56" d="M655.074 249.026c-29.007-20.67-35.77-60.944-15.1-89.952 20.67-29.007 60.944-35.77 89.952-15.1 29.007 20.67 35.77 60.944 15.1 89.952-20.67 29.007-60.942 35.77-89.952 15.1"/>
                <path fill="#1E646B" d="M802.5 74.77c-48.46 0-87.73 39.272-87.73 87.732 0 48.458 39.27 87.727 87.73 87.727 48.458 0 87.73-39.27 87.73-87.727 0-48.462-39.27-87.731-87.73-87.731m0-20.771C862.42 54 911 102.577 911 162.502 911 222.423 862.42 271 802.5 271 742.577 271 694 222.423 694 162.502 694 102.577 742.577 54 802.5 54"/>
                <path fill="#FFF" d="M928.235 246.552c-9.586-5.294-15.364-17.274-10.003-38.086 16.402-21.611 29.687-51.935 18.813-74.978-17.142-41.098-81.009-48.43-113.529-11.805-11.96 19.276-6.773 26.921-10.305 40.397-7.47 10.143-22.04 13.204-24.181 22.49-.659 8.53 9.748 7.72 16.397 14.328-.503 3.709-1.703 7.327-4.263 10.772-.083 1.95 1.412 3.333 4.514 4.469-3.117.241-5.63 2.004-5.83 3.83-.341 2.207 4.792 4.097 4.499 7.697-.223 4.18-1.085 4.694-2.98 9.036-2.09 4.606.318 8.516 5.495 9.64 13.984 3.024 25.925 3.86 37.051 3.32 10.82 5.561 19.756 23.852 20.557 34.338 29.378-5.501 49.96-17.838 63.765-35.448"/>
                <path fill="#E1AE15" d="M738.303 223.8c-4.879-.075-8.904 4.466-8.99 10.148-.088 5.681 3.793 10.346 8.674 10.42 4.876.075 8.906-4.465 8.992-10.15.088-5.679-3.798-10.344-8.676-10.419m2.922-8.98c22.991 11.016 25.557 42.86 9.664 65.26C735 302.474 707.2 310 681.652 291.793c-25.553-18.204-20-67.072 17.995-56.701 23.876 6.515 21.556-8.838 25.767-17.178 2.254-4.46 8.16-6.761 15.81-3.095"/>
                <path fill="#EEC64A" d="M739.303 220.802c-4.879-.079-8.904 4.466-8.99 10.144-.088 5.685 3.793 10.35 8.672 10.425 4.878.075 8.906-4.466 8.994-10.15.088-5.679-3.798-10.344-8.676-10.419m2.922-8.984c22.991 11.02 25.557 42.863 9.664 65.261-15.892 22.396-43.69 29.921-69.24 11.716-25.55-18.208-19.996-67.07 17.996-56.7 23.878 6.515 21.558-8.837 25.769-17.177 2.254-4.459 8.16-6.765 15.81-3.1"/>
                <path fill="#9D9D9D" d="M687.846 258.387a7.501 7.501 0 0 1 1.765 10.461 7.494 7.494 0 0 1-10.457 1.76 7.496 7.496 0 0 1-1.767-10.454 7.502 7.502 0 0 1 10.46-1.767"/>
                <path fill="#E1E8E1" d="M690 265.275a7.552 7.552 0 0 1-1.133 2.617c-2.267 3.327-6.694 4.107-9.885 1.737-1.91-1.413-2.945-3.637-2.982-5.905a7.492 7.492 0 0 1 1.131-2.616c2.271-3.327 6.696-4.105 9.889-1.74 1.91 1.418 2.943 3.635 2.98 5.907"/>
                <path fill="#14B0BF" d="M743.846 263.387a7.498 7.498 0 0 1 1.767 10.456 7.498 7.498 0 0 1-10.46 1.77c-3.374-2.403-4.166-7.086-1.764-10.459a7.5 7.5 0 0 1 10.457-1.767"/>
                <path fill="#A5DBE5" d="M746 271.275a7.53 7.53 0 0 1-1.131 2.612c-2.269 3.33-6.696 4.11-9.887 1.746-1.91-1.417-2.945-3.642-2.982-5.914.204-.911.576-1.8 1.131-2.612 2.271-3.326 6.696-4.104 9.889-1.739 1.91 1.417 2.943 3.64 2.98 5.907"/>
                <path fill="#F1F1F5" d="M326.411 179.842l-3.39 30.092c-.198 1.749 1.068 3.345 2.809 3.539l92.233 10.507c1.739.198 3.328-1.081 3.524-2.826l3.393-30.092c.195-1.747-1.067-3.343-2.81-3.541l-92.233-10.5c-1.743-.2-3.328 1.072-3.526 2.82"/>
                <path fill="#F1CE65" d="M343.24 182L340 211.51l12.76 1.49 3.24-29.51z"/>
                <path fill="#EEC64A" d="M357.239 184L354 213.51l12.76 1.49 3.24-29.51z"/>
                <path fill="#ECBC2C" d="M371.24 186L368 215.51l12.76 1.49 3.24-29.51z"/>
                <path fill="#E1AE15" d="M386.239 187L383 216.51l12.76 1.49 3.24-29.51z"/>
                <path fill="#C39713" d="M400.24 189L397 218.506 409.76 220l3.24-29.51z"/>
                <path fill="#F4D782" d="M328.24 181L325 210.51l12.76 1.49 3.24-29.51z"/>
                <path fill="#E1E8E1" d="M344.967 142.555l-15.518 25.932a3.202 3.202 0 0 0 1.108 4.38l80.085 47.687c1.51.896 3.49.4 4.39-1.108l15.518-25.93a3.197 3.197 0 0 0-1.108-4.377l-80.084-47.69a3.215 3.215 0 0 0-4.391 1.106"/>
                <path fill="#E74037" d="M360.452 151L345 176.268 356.546 183 372 157.73z"/>
                <path fill="#E2251C" d="M372.454 159L357 184.267 368.548 191 384 165.728z"/>
                <path fill="#C62018" d="M385.454 166L370 191.272 381.548 198 397 172.728z"/>
                <path fill="#C5262B" d="M397.454 174L382 199.272 393.548 206 409 180.728z"/>
                <path fill="#A72123" d="M410.454 181L395 206.272 406.548 213 422 187.728z"/>
                <path fill="#EB5851" d="M347.453 144L332 169.272 343.547 176 359 150.73z"/>
                <path fill="#F1F1F5" d="M379.14 115.565l-24.77 17.187a3.204 3.204 0 0 0-.807 4.44l52.86 76.44a3.205 3.205 0 0 0 4.439.806l24.77-17.19a3.202 3.202 0 0 0 .804-4.437l-52.86-76.44a3.194 3.194 0 0 0-4.436-.806"/>
                <path fill="#A5DBE5" d="M388.447 130L364 147.033 371.553 158 396 140.967z"/>
                <path fill="#7DCBDB" d="M396.447 142L372 159.031 379.553 170 404 152.969z"/>
                <path fill="#14B0BF" d="M404.447 154L380 171.03l7.55 10.97L412 164.967z"/>
                <path fill="#018A9D" d="M413.447 166L389 183.035 396.553 194 421 176.97z"/>
                <path fill="#026D7E" d="M421.447 178L397 195.03l7.553 10.97L429 188.965z"/>
                <path fill="#B6E1EA" d="M380.447 118L356 135.032 363.553 146 388 128.968z"/>
                <path fill="#FDC00F" d="M893.001 71C871.461 71 854 88.497 854 110.078c0 9.886 3.666 18.91 9.704 25.792h-.005l.063.066c.339.387.685.764 1.04 1.138 6.58 7.411 10.356 16.478 10.356 26.404 0 1.936 1.58 3.522 3.513 3.522h28.66c1.93 0 3.51-1.586 3.51-3.522 0-9.926 3.776-18.993 10.36-26.404.355-.374.7-.751 1.037-1.138l.065-.066h-.004A38.975 38.975 0 0 0 932 110.078C932 88.497 914.541 71 893.001 71"/>
                <path fill="#FFE721" d="M915.624 135.242l-.049.056-.083.106c-.262.336-.526.664-.8.99l-.11.127-.105.137c-6.8 8.645-11.128 19.025-12.284 30.342h-18.386c-1.154-11.317-5.482-21.697-12.284-30.342l-.106-.137-.11-.126c-.277-.331-.546-.669-.815-1.011l-.056-.072c-4.85-6.186-7.436-14.108-7.436-22.366C863 94.196 876.43 79 893 79c16.573 0 30 15.196 30 33.946 0 8.235-2.597 16.092-7.376 22.296"/>
                <mask id="d" fill="#fff">
                    <use xlink:href="#c"/>
                </mask>
                <path fill="#785B68" d="M879 182h29v-15h-29z" mask="url(#d)"/>
                <path fill="#FFF" d="M899.346 117.621c1.039-4.12 2.416-7.74 4.232-10.59 2.42-3.805 6.748-7.734 9.311-2.037 2.949 6.556-.982 14.425-8.623 13.825-1.603-.123-3.276-.56-4.92-1.198zm-2.473 49.334c-.406-9.78-.75-21.617.031-32.606.395-5.558 1.074-10.892 2.173-15.624 1.702.649 3.431 1.09 5.106 1.222 8.488.665 13.039-8.076 9.735-15.414-2.95-6.561-8.293-2.832-11.298 1.89-1.854 2.918-3.265 6.591-4.328 10.76a29.807 29.807 0 0 1-3.756-2.017c-.22-.14-.408-.258-.572-.368l-.964.612c.22.14.765.604.933.71a30.87 30.87 0 0 0 4.086 2.175c-1.142 4.844-1.841 10.3-2.245 15.974-.778 11.031-.437 22.91-.027 32.731l1.126-.045z" mask="url(#d)"/>
                <path fill="#FFF" d="M888.902 117.621c-1.052-4.12-2.453-7.74-4.296-10.59-2.46-3.805-6.857-7.734-9.458-2.037-2.998 6.556.995 14.425 8.756 13.825 1.629-.123 3.328-.56 4.998-1.198zm2.513 49.334c.412-9.78.758-21.617-.032-32.606-.401-5.558-1.092-10.892-2.21-15.624-1.727.649-3.483 1.09-5.182 1.222-8.625.665-13.247-8.076-9.893-15.414 2.997-6.561 8.426-2.832 11.478 1.89 1.884 2.918 3.317 6.591 4.397 10.76a30.786 30.786 0 0 0 3.817-2.017c.221-.14.413-.258.579-.368l.631.94a31.527 31.527 0 0 1-4.75 2.556c1.16 4.845 1.87 10.3 2.28 15.975.793 11.031.447 22.91.03 32.731l-1.145-.045z" mask="url(#d)"/>
                <path fill="#5A3445" d="M879 182c0 7.702 6.11 14 13.578 14h1.841c7.47 0 13.581-6.298 13.581-14h-29z" mask="url(#d)"/>
                <path fill="#785B68" d="M878 170h31v-3h-31zM878 176h31v-3h-31zM878 182h31v-3h-31z" mask="url(#d)"/>
                <path fill="#5A3445" d="M908 170h-29v3h25.784zM908 176h-29v3h25.784z" mask="url(#d)"/>
                <path fill="#FFF" d="M877.912 69.044a1.461 1.461 0 0 1-.865 1.868 1.45 1.45 0 0 1-1.86-.87l-5.1-14.086a1.462 1.462 0 0 1 .868-1.868 1.45 1.45 0 0 1 1.86.872l5.097 14.084zM863.675 76.67a1.435 1.435 0 0 1-.173 1.998 1.377 1.377 0 0 1-1.964-.176l-9.213-11.165a1.438 1.438 0 0 1 .172-1.997 1.378 1.378 0 0 1 1.962.176l9.216 11.165zM853.268 89.388c.7.388.94 1.241.535 1.912-.404.671-1.3.898-2.003.513l-13.068-7.203c-.699-.385-.94-1.24-.535-1.911.406-.669 1.302-.898 2.003-.51l13.068 7.2zM845.84 105.38c.763.128 1.271.813 1.14 1.529-.137.718-.864 1.197-1.626 1.07l-14.195-2.359c-.764-.124-1.27-.809-1.138-1.527.134-.718.863-1.2 1.627-1.073l14.193 2.36zM845.355 122.02c.762-.128 1.491.355 1.623 1.073.135.716-.374 1.4-1.136 1.529l-14.197 2.358c-.76.126-1.487-.355-1.623-1.072-.135-.718.374-1.403 1.138-1.527l14.195-2.36zM851.8 138.188c.703-.387 1.597-.158 2.003.51.406.672.164 1.53-.535 1.917l-13.068 7.197c-.7.387-1.6.158-2.003-.51-.405-.672-.166-1.527.537-1.914l13.066-7.2zM861.54 151.506a1.378 1.378 0 0 1 1.962-.176c.589.503.667 1.4.173 1.997l-9.214 11.166a1.375 1.375 0 0 1-1.964.174 1.432 1.432 0 0 1-.17-1.995l9.213-11.166zM924.327 152.328a1.432 1.432 0 0 1 .17-1.995 1.375 1.375 0 0 1 1.964.174l9.214 11.166a1.435 1.435 0 0 1-.173 1.997 1.38 1.38 0 0 1-1.962-.174l-9.213-11.168zM935.734 139.615c-.703-.387-.942-1.243-.537-1.914.404-.669 1.302-.9 2.005-.515l13.066 7.202c.7.387.94 1.243.535 1.911-.406.671-1.3.9-2.003.513l-13.066-7.197zM942.16 123.621c-.764-.126-1.273-.81-1.138-1.529.134-.72.86-1.197 1.625-1.072l14.194 2.359c.764.124 1.27.81 1.138 1.529-.136.72-.863 1.197-1.625 1.072l-14.194-2.359zM941.645 105.98c-.762.126-1.49-.353-1.623-1.073-.135-.718.374-1.402 1.136-1.529l14.197-2.358c.762-.125 1.49.352 1.623 1.07.135.72-.374 1.405-1.136 1.531l-14.197 2.359zM936.202 90.814c-.703.385-1.6.154-2.005-.515-.406-.668-.164-1.526.537-1.913l13.066-7.199c.703-.387 1.6-.154 2.003.513.405.668.166 1.528-.535 1.915l-13.066 7.199zM925.462 77.493a1.375 1.375 0 0 1-1.964.174 1.432 1.432 0 0 1-.173-1.995l9.213-11.166a1.38 1.38 0 0 1 1.964-.176c.589.503.667 1.398.173 1.997l-9.213 11.166zM911.813 69.042a1.45 1.45 0 0 1-1.86.87 1.46 1.46 0 0 1-.865-1.869l5.1-14.085a1.45 1.45 0 0 1 1.858-.87 1.46 1.46 0 0 1 .866 1.869l-5.1 14.085z" mask="url(#d)"/>
                <path fill="#FFD621" d="M744.775 94.004l.225 5.743-7.738 1.253-.262-6.69L740.492 84z" mask="url(#d)"/>
                <path fill="#E5BE01" d="M743.902 94.045l-2.656-6.833L740 84l2.129 10.126.104 2.874 1.767-.183z" mask="url(#d)"/>
                <path fill="#FFE263" d="M737 94.231l2.04-6.96L740 84l-1.327 10.16.094 2.84-1.674-.027z" mask="url(#d)"/>
                <path fill="#C5262B" d="M743.967 93c-.141 1.137-1.7 1.132-1.967.075L745.03 168l1.97-.075L743.967 93z" mask="url(#d)"/>
                <path fill="#E74037" d="M742.96 93c-.253 1.334-3.336 1.76-3.96.163L742.038 168l1.981-.075 1.981-.077L742.96 93z" mask="url(#d)"/>
                <path fill="#C5262B" d="M738.97 94c-.144 1.141-1.703 1.137-1.97.075L740.028 169l1.972-.075L738.97 94zM739 87l.898-3L741 86.912z" mask="url(#d)"/>
                <path fill="#E5BE01" d="M746.914 163l-3.914.13.086 1.87 3.914-.13z" mask="url(#d)"/>
                <path fill="#FFD302" d="M744.914 163l-3.914.13.088 1.87 3.912-.13z" mask="url(#d)"/>
                <path fill="#FFE263" d="M740.914 163l-1.914.067.086 1.933 1.914-.067z" mask="url(#d)"/>
                <path fill="#FFD621" d="M703.394 79.5L705 84.924 697.87 88 696 81.683 696.86 71z" mask="url(#d)"/>
                <path fill="#E5BE01" d="M703.26 79.679L699 73.774 697 71l4.49 9.24.767 2.76 1.743-.659z" mask="url(#d)"/>
                <path fill="#FFE263" d="M696 81.45l.664-7.11.309-3.34 1.124 9.92.903 2.642-2.125.438z" mask="url(#d)"/>
                <path fill="#018A9D" d="M703.83 80c.142 1.134-1.323 1.498-1.83.54L723.167 152l1.833-.54L703.83 80z" mask="url(#d)"/>
                <path fill="#14B0BF" d="M701.685 80c.09 1.359-2.704 2.502-3.685 1.1l21.31 71.9 1.844-.543 1.846-.544L701.685 80z" mask="url(#d)"/>
                <path fill="#018A9D" d="M697.833 81c.142 1.132-1.323 1.499-1.833.54L717.167 153l1.833-.54L697.833 81z" mask="url(#d)"/>
                <path fill="#14B0BF" d="M697 74l.231-3L699 73.387z" mask="url(#d)"/>
                <path fill="#E5BE01" d="M722.429 146L719 147.032l.571 1.968 3.429-1.032z" mask="url(#d)"/>
                <path fill="#FFD302" d="M721.428 147L718 148.032l.572 1.968 3.428-1.032z" mask="url(#d)"/>
                <path fill="#FFE263" d="M717.5 148l-1.5.623.5 2.377 1.5-.623z" mask="url(#d)"/>
                <path fill="#FFD621" d="M714.394 76.499L716 81.923 708.87 85 707 78.68l.86-10.68z" mask="url(#d)"/>
                <path fill="#E5BE01" d="M714.26 76.679L710 70.776 708 68l4.49 9.245.765 2.755 1.745-.659z" mask="url(#d)"/>
                <path fill="#FFE263" d="M707 78.45l.66-7.108.312-3.342 1.123 9.923.905 2.642-2.129.435z" mask="url(#d)"/>
                <path fill="#FC0" d="M713.83 76c.145 1.132-1.323 1.496-1.83.538L733.17 148l1.83-.54L713.83 76z" mask="url(#d)"/>
                <path fill="#FFE721" d="M712.687 77c.09 1.358-2.704 2.502-3.687 1.1l21.309 71.9 1.843-.546 1.848-.543L712.687 77z" mask="url(#d)"/>
                <path fill="#FF0" d="M708.83 78c.145 1.134-1.323 1.499-1.83.54L728.165 150l1.835-.54L708.83 78z" mask="url(#d)"/>
                <path fill="#FFE721" d="M707 71l.233-3L709 70.388z" mask="url(#d)"/>
                <path fill="#FF0" d="M733.428 143L730 144.032l.572 1.968 3.428-1.03z" mask="url(#d)"/>
                <path fill="#FF0" d="M731.429 144L728 145.032l.574 1.968 3.426-1.03z" mask="url(#d)"/>
                <path fill="#FF0" d="M728.5 145l-1.5.623.499 2.377 1.501-.623z" mask="url(#d)"/>
                <path fill="#ECBC2C" d="M759.067 131.31L757 130l1.867 7.256c.264 1.064 1.273.985 1.117-.227l-.917-5.718zM781 127.155l1.5-2.155.495 7.958c.082 1.159-.868 1.505-1.094.24l-.901-6.043zM755.575 125.616l25.598-4.605a.704.704 0 0 1 .816.562.7.7 0 0 1-.566.811l-25.6 4.605a.696.696 0 1 1-.248-1.373" mask="url(#d)"/>
                <path fill="#F5F5F7" d="M763 89.591c-3.147 13.655-5.45 21.556-3.528 42.409l-3.107-2.88c-2.607-14.126-1.198-28.585 1.858-42.12L763 89.591zM763 90.057c7.681 11.865 12.563 18.565 18.217 38.943l1.783-3.77c-2.655-14.243-9.048-27.45-16.603-39.23L763 90.057z" mask="url(#d)"/>
                <path fill="#E74037" d="M758 76.85l4.706-.85L764 83.15l-4.708.85z" mask="url(#d)"/>
                <path fill="#018A9D" d="M760.934 79.097a5.998 5.998 0 0 1 6.97 4.836 6.001 6.001 0 0 1-4.838 6.97 5.998 5.998 0 1 1-2.132-11.807" mask="url(#d)"/>
                <path fill="#14B0BF" d="M760.935 78.096a6 6 0 1 1 2.128 11.81 6 6 0 0 1-2.128-11.81" mask="url(#d)"/>
                <path fill="#018A9D" d="M760.879 81.056a3.501 3.501 0 0 1 4.064 2.823 3.493 3.493 0 0 1-2.823 4.065 3.5 3.5 0 0 1-1.242-6.888" mask="url(#d)"/>
                <path fill="#ECBC2C" d="M764.487 82.909c.224.353.385.756.46 1.196.32 1.797-.853 3.519-2.621 3.842a3.209 3.209 0 0 1-2.814-.854 3.317 3.317 0 0 1-.46-1.193c-.317-1.8.856-3.52 2.622-3.847a3.208 3.208 0 0 1 2.813.856" mask="url(#d)"/>
                <path fill="#14B0BF" d="M756.296 70.943l5.144-.938a.36.36 0 0 1 .418.296l1.136 6.333a.363.363 0 0 1-.29.421l-5.144.938a.361.361 0 0 1-.42-.293l-1.135-6.335a.364.364 0 0 1 .291-.422" mask="url(#d)"/>
                <path fill="#018A9D" d="M767.86 120.047l.137-.029c.564-.111 1.112.3 1.211.921l.775 4.688c.104.618-.275 1.215-.84 1.328l-.138.026c-.565.114-1.112-.303-1.214-.923l-.774-4.683c-.102-.62.276-1.217.843-1.328" mask="url(#d)"/>
                <path fill="#E1AE15" d="M511.225 273.94l26.57-79.813c.825-2.47-.92-5.288-3.868-6.258l-59.288-19.536c-2.95-.97-6.04.253-6.865 2.73l-26.57 79.809c-.822 2.468.92 5.288 3.87 6.263l59.289 19.534c2.95.968 6.04-.258 6.862-2.729" mask="url(#d)"/>
                <path fill="#F1F1F5" d="M499.885 191l38.494 12.734 6.621 13.16L527.394 270 479 253.986z" mask="url(#d)"/>
                <path fill="#EBEBF1" d="M535 214.209L541.687 227l3.313-9.609-3.345-6.391z" mask="url(#d)"/>
                <path fill="#A5DBE5" d="M538.31 204l6.69 13-10-3.236z" mask="url(#d)"/>
                <path fill="#018A9D" d="M535 220.104L501.292 209 495 227.896 528.71 239z" mask="url(#d)"/>
                <path fill="#E1AE15" d="M509.23 273.923l26.566-80.291c.824-2.49-.921-5.325-3.868-6.3l-57.296-18.998c-2.95-.976-6.04.258-6.863 2.747l-26.566 80.292c-.821 2.483.921 5.32 3.87 6.3l57.294 18.99c2.954.979 6.042-.25 6.863-2.74" mask="url(#d)"/>
                <path fill="#EEC64A" d="M508.501 273.863l26.29-79.66c.83-2.517-.882-5.376-3.81-6.347l-11.6-3.856c-11.24 5.651-22.446 20.297-28.729 39.341-6.463 19.588-5.984 38.56.15 49.72l10.864 3.61c2.93.975 6.005-.29 6.835-2.808" mask="url(#d)"/>
                <path fill="#F1F1F5" d="M526.664 185.099h.002a1.961 1.961 0 0 1 1.235 2.467l-29.105 88.093a1.95 1.95 0 0 1-2.46 1.243h-.002a1.961 1.961 0 0 1-1.235-2.472l29.103-88.093a1.954 1.954 0 0 1 2.462-1.238" mask="url(#d)"/>
                <path fill="#FFF" d="M584.437 217.282l7.736 12.133a1.809 1.809 0 0 1 2.016.765l8.21 12.878a1.822 1.822 0 0 1-.662 2.57c-.038.03-.074.052-.11.08a1.804 1.804 0 0 1-2.494-.549l-8.211-12.877a1.828 1.828 0 0 1 .15-2.158l-7.703-12.085a3.26 3.26 0 0 0 .457-.238c.228-.152.436-.324.611-.519m-1.812.974c2.85 7.277 3.497 14.477 3.709 21.896.216 7.528 4.935 12.685 12.74 15.018l-.374.242a.463.463 0 0 0-.14.64l1.403 2.204a.466.466 0 0 0 .642.14l.106-.065L610.063 273 623 264.675l-9.352-14.67.106-.07a.467.467 0 0 0 .14-.645l-1.403-2.199a.464.464 0 0 0-.642-.14l-.374.238c1.158-8.095-1.531-14.558-8.248-17.901-6.649-3.313-13.011-6.83-18.41-12.51a3.152 3.152 0 0 0-.046-3.325 3.122 3.122 0 0 0-4.326-.956 3.155 3.155 0 0 0-.95 4.348 3.125 3.125 0 0 0 3.13 1.411M473 142.373a6105.373 6105.373 0 0 1-5.17 5.627c-18.395-16.783-36.724-33.645-55.082-50.464h.002l-.014-.012L408 88l3.17 1.247 6.74 2.648c18.362 16.82 36.727 33.655 55.09 50.478" mask="url(#d)"/>
                <path fill="#F1F1F5" d="M616 134.092L528.118 175 483 76.908 570.882 36z" mask="url(#d)"/>
                <path fill="#9D9D9D" d="M544 103.455L510.662 119 493 80.542 526.338 65z" mask="url(#d)"/>
                <path fill="#E74037" d="M541 104.682c-4.25-9.435-13.97-14.103-21.706-10.425-7.74 3.677-10.567 14.305-6.317 23.743L541 104.682z" mask="url(#d)"/>
                <path fill="#EEC64A" d="M512.802 78.926c5.01-2.318 10.954-.136 13.272 4.876 2.317 5.01.136 10.951-4.872 13.271-5.012 2.32-10.956.134-13.276-4.876-2.318-5.01-.134-10.95 4.876-13.27" mask="url(#d)"/>
                <path fill="#785B68" d="M585 84.458L551.66 100 534 61.542 567.34 46z" mask="url(#d)"/>
                <path fill="#E74037" d="M582 85.682c-4.25-9.435-13.97-14.103-21.71-10.425-7.737 3.674-10.563 14.308-6.311 23.743L582 85.682z" mask="url(#d)"/>
                <path fill="#EEC64A" d="M552.803 59.927c5.01-2.32 10.95-.136 13.27 4.874 2.318 5.01.137 10.955-4.873 13.272-5.012 2.318-10.953.139-13.273-4.874-2.32-5.012-.136-10.954 4.876-13.272" mask="url(#d)"/>
                <path fill="#92D3E0" d="M565 148.458L531.66 164 514 125.542 547.34 110z" mask="url(#d)"/>
                <path fill="#E74037" d="M562 149.68c-4.252-9.432-13.97-14.1-21.709-10.425-7.737 3.677-10.564 14.308-6.314 23.745L562 149.68z" mask="url(#d)"/>
                <path fill="#EEC64A" d="M533.801 123.926c5.012-2.317 10.954-.136 13.271 4.876 2.32 5.012.139 10.952-4.871 13.272-5.012 2.318-10.954.134-13.274-4.876-2.32-5.011-.136-10.954 4.874-13.272" mask="url(#d)"/>
                <path fill="#6B809B" d="M605 130.458L571.66 146 554 107.545 587.337 92z" mask="url(#d)"/>
                <path fill="#E74037" d="M603 130.684c-4.252-9.438-13.97-14.103-21.708-10.428-7.737 3.677-10.566 14.31-6.314 23.744L603 130.684z" mask="url(#d)"/>
                <path fill="#EEC64A" d="M573.802 104.928c5.01-2.32 10.953-.139 13.27 4.876 2.32 5.01.139 10.951-4.873 13.269-5.01 2.32-10.951.136-13.273-4.876-2.318-5.01-.134-10.954 4.876-13.27" mask="url(#d)"/>
                <path fill="#FFF" d="M645 43.19c-10.964 0-20.201 4.289-22.992 9.31 2.79 5.021 12.028 9.312 22.992 9.312 10.966 0 20.203-4.29 22.994-9.312-2.79-5.021-12.028-9.31-22.994-9.31m0 3.483c-3.24 0-5.87 2.61-5.87 5.827 0 3.218 2.63 5.827 5.87 5.827s5.87-2.61 5.87-5.827c0-3.218-2.63-5.827-5.87-5.827m0-3.471c-5.172 0-9.36 4.164-9.36 9.298s4.188 9.298 9.36 9.298 9.363-4.164 9.363-9.298-4.19-9.298-9.363-9.298m1.308 5.807a2.092 2.092 0 0 1-2.095 2.079c1.154 0 2.095.937 2.095 2.08 0-1.143.944-2.08 2.093-2.08a2.093 2.093 0 0 1-2.093-2.079M645 48.307c-2.332 0-4.222 1.877-4.222 4.193s1.89 4.195 4.222 4.195c2.332 0 4.224-1.879 4.224-4.195 0-2.316-1.892-4.193-4.224-4.193M645 36c11.923 0 21.963 7.602 25 16.5-3.037 8.898-13.077 16.5-25 16.5-11.92 0-21.963-7.602-25-16.5 3.037-8.898 13.08-16.5 25-16.5" mask="url(#d)"/>
                <path fill="#E1E8E1" d="M591 98h76v99h-76v-25.102z" mask="url(#d)"/>
                <path fill="#F1F1F5" d="M591 98h76v99h-60.195L591 181.541z" mask="url(#d)"/>
                <path fill="#E1E8E1" d="M621 196l-15-15v15z" mask="url(#d)"/>
                <path fill="#FFF" d="M606 196l-15-15h15z" mask="url(#d)"/>
                <path fill="#402431" d="M656.96 148.502l-28.46-28.461-28.461 28.461 28.461 28.46 28.46-28.46zm-28.203-29.243l28.982 28.984.261.26-.261.258-28.982 28.98-.257.259-.26-.26-28.979-28.979-.261-.259.261-.259 28.98-28.984.259-.259.257.26z" mask="url(#d)"/>
                <path fill="#402431" d="M629.501 117a1.5 1.5 0 1 1-.003 3 1.5 1.5 0 0 1 .003-3M658.499 147a1.5 1.5 0 1 1 .003 3 1.5 1.5 0 0 1-.003-3M599.5 147a1.5 1.5 0 1 1 0 3 1.5 1.5 0 0 1 0-3M629.499 176a1.5 1.5 0 1 1 .003 3 1.5 1.5 0 0 1-.003-3" mask="url(#d)"/>
                <path fill="#402431" d="M608.74 177.265h40.52v-57.527h-40.52v57.527zM608.37 119H650V178H608V119h.37z" mask="url(#d)"/>
                <path fill="#E74037" d="M612.992 161.593l29.314-29.052-2.031-2.04-29.013 28.747a21.24 21.24 0 0 0 1.73 2.345m36.894-15.788l-23.269 23.057a21.17 21.17 0 0 0 2.384.138c.552 0 1.099-.023 1.64-.068l19.282-19.107a21.24 21.24 0 0 0-.036-4.02m-1.8-6.576l-28.028 27.778c.949.447 1.936.824 2.958 1.128l26.17-25.94a20.906 20.906 0 0 0-1.1-2.966m-2.194-3.703l-1.241-1.25-29.592 29.326.672.679c.504.406 1.026.796 1.567 1.16l29.246-28.982c-.209-.32-.425-.63-.652-.933m-11.098-7.718l-26.037 25.806a21.13 21.13 0 0 0 1.079 2.992l27.936-27.69c-.956-.443-1.95-.81-2.978-1.108m-3.412-.674l-23.27 23.061A20.625 20.625 0 0 1 608 148c0-.617.025-1.224.077-1.827l19.28-19.11a21.195 21.195 0 0 1 4.025.07" mask="url(#d)"/>
                <path fill="#E74037" d="M641.807 135.195a18.062 18.062 0 0 0-12.806-5.305c-5.001 0-9.528 2.03-12.806 5.305A18.047 18.047 0 0 0 610.89 148c0 5 2.027 9.527 5.305 12.803a18.053 18.053 0 0 0 12.806 5.305c5.001 0 9.528-2.027 12.806-5.305A18.049 18.049 0 0 0 647.11 148c0-5-2.027-9.53-5.303-12.805M629.001 127a20.933 20.933 0 0 1 14.85 6.152A20.925 20.925 0 0 1 650 148c0 5.798-2.35 11.048-6.15 14.848A20.943 20.943 0 0 1 629.001 169a20.952 20.952 0 0 1-14.851-6.152A20.943 20.943 0 0 1 608 148c0-5.8 2.352-11.05 6.15-14.848 3.8-3.8 9.053-6.152 14.851-6.152" mask="url(#d)"/>
                <path fill="#5A3445" d="M602.5 102c1.932 0 3.5 1.568 3.5 3.501a3.5 3.5 0 1 1-3.5-3.501" mask="url(#d)"/>
                <path fill="#785B68" d="M604.76 103.367c.153.395.24.826.24 1.278 0 1.852-1.43 3.355-3.19 3.355-1.055 0-1.991-.54-2.572-1.367a3.497 3.497 0 0 1-.238-1.278c0-1.854 1.428-3.355 3.19-3.355 1.053 0 1.991.538 2.57 1.367" mask="url(#d)"/>
                <path fill="#5A3445" d="M615.5 102a3.5 3.5 0 1 1 0 7 3.5 3.5 0 0 1 0-7" mask="url(#d)"/>
                <path fill="#785B68" d="M617.762 103.367c.153.395.238.826.238 1.278 0 1.852-1.427 3.355-3.19 3.355-1.054 0-1.987-.54-2.57-1.367a3.544 3.544 0 0 1-.24-1.278c0-1.854 1.43-3.355 3.19-3.355 1.056 0 1.991.538 2.572 1.367" mask="url(#d)"/>
                <path fill="#5A3445" d="M628.499 102a3.501 3.501 0 1 1-3.499 3.501 3.501 3.501 0 0 1 3.499-3.501" mask="url(#d)"/>
                <path fill="#785B68" d="M631.762 103.367c.153.395.238.826.238 1.278 0 1.852-1.428 3.355-3.19 3.355-1.053 0-1.989-.54-2.57-1.367a3.498 3.498 0 0 1-.24-1.278c0-1.854 1.43-3.355 3.19-3.355 1.055 0 1.993.538 2.572 1.367" mask="url(#d)"/>
                <path fill="#5A3445" d="M642.5 102a3.5 3.5 0 1 1 0 7 3.5 3.5 0 0 1 0-7" mask="url(#d)"/>
                <path fill="#785B68" d="M644.76 103.367c.155.395.24.826.24 1.278 0 1.852-1.428 3.355-3.19 3.355-1.055 0-1.991-.54-2.572-1.367a3.497 3.497 0 0 1-.238-1.278c0-1.854 1.428-3.355 3.189-3.355 1.054 0 1.992.538 2.571 1.367" mask="url(#d)"/>
                <path fill="#5A3445" d="M655.5 102c1.932 0 3.5 1.568 3.5 3.501a3.5 3.5 0 1 1-3.5-3.501" mask="url(#d)"/>
                <path fill="#785B68" d="M658.76 103.367c.153.395.24.826.24 1.278 0 1.852-1.43 3.355-3.19 3.355-1.056 0-1.99-.54-2.572-1.367a3.543 3.543 0 0 1-.238-1.278c0-1.854 1.427-3.355 3.19-3.355 1.054 0 1.99.538 2.57 1.367" mask="url(#d)"/>
                <path fill="#14B0BF" d="M601.501 96c.827 0 1.499.726 1.499 1.611v7.78c0 .887-.672 1.609-1.499 1.609-.827 0-1.501-.722-1.501-1.61v-7.779c0-.885.674-1.611 1.501-1.611M615.5 96c.826 0 1.5.726 1.5 1.611v7.78c0 .887-.674 1.609-1.5 1.609s-1.5-.722-1.5-1.61v-7.779c0-.885.674-1.611 1.5-1.611M628.498 96c.826 0 1.502.726 1.502 1.611v7.78c0 .887-.676 1.609-1.502 1.609s-1.498-.722-1.498-1.61v-7.779c0-.885.672-1.611 1.498-1.611M642.5 96c.826 0 1.5.726 1.5 1.611v7.78c0 .887-.674 1.609-1.5 1.609s-1.5-.722-1.5-1.61v-7.779c0-.885.674-1.611 1.5-1.611M655.502 96c.824 0 1.498.726 1.498 1.611v7.78c0 .887-.674 1.609-1.498 1.609-.826 0-1.502-.722-1.502-1.61v-7.779c0-.885.676-1.611 1.502-1.611" mask="url(#d)"/>
                <path fill="#AAD3EF" d="M331.615 83.265c5.376 4.76 5.88 12.976 1.12 18.35-4.759 5.377-12.975 5.878-18.351 1.12-5.376-4.757-5.877-12.973-1.119-18.35 4.758-5.377 12.974-5.878 18.35-1.12" mask="url(#d)"/>
                <path fill="#14B0BF" d="M310.627 90.482c1.39-6.823 8.07-11.244 14.891-9.853 6.825 1.389 11.244 8.066 9.856 14.889-1.392 6.826-8.07 11.244-14.894 9.855-6.822-1.389-11.242-8.069-9.853-14.891m-4.281-.874c-1.875 9.202 4.064 18.174 13.262 20.047 9.198 1.874 18.173-4.068 20.047-13.263 1.872-9.198-4.067-18.175-13.265-20.047-9.198-1.872-18.172 4.067-20.044 13.263" mask="url(#d)"/>
                <path fill="#018A9D" d="M310.856 104l3.144 2.726-3.859 4.274-3.141-2.726z" mask="url(#d)"/>
                <path fill="#F3F4F6" d="M309.409 108.21c1.95 1.769 2.132 4.848.409 6.846l-17.546 20.315a4.662 4.662 0 0 1-6.68.414h-.002c-1.948-1.764-2.133-4.845-.407-6.841l17.547-20.315a4.668 4.668 0 0 1 6.679-.418" mask="url(#d)"/>
                <path fill="#14B0BF" d="M292.27 135.37a4.664 4.664 0 0 1-6.68.417c-1.948-1.766-2.133-4.845-.407-6.841l7.086 6.424zm16.182-18.734l-7.086-6.427-14.819 17.153 7.086 6.429 14.819-17.155zm.957-8.425c1.95 1.77 2.133 4.847.407 6.845l-7.086-6.427a4.668 4.668 0 0 1 6.68-.418z" mask="url(#d)"/>
                <path fill="#F1F9FC" d="M317.637 88.383a1.425 1.425 0 0 1-2.046.318c-.649-.504-.783-1.464-.304-2.142.306-.432.649-.848 1.019-1.244 1.801-1.917 4.101-3.018 6.444-3.261a9.384 9.384 0 0 1 6.771 1.914c.35.27.699.583 1.041.936.576.59.585 1.557.02 2.156a1.413 1.413 0 0 1-2.061.022 7.35 7.35 0 0 0-.742-.657 6.585 6.585 0 0 0-4.739-1.344c-1.683.174-3.34.974-4.65 2.369-.255.274-.509.584-.753.933" mask="url(#d)"/>
                <path fill="#154D56" d="M233 130.936c-13.844 0-25.066 11.22-25.066 25.065 0 13.842 11.222 25.063 25.066 25.063 13.847 0 25.068-11.221 25.068-25.063 0-13.846-11.221-25.065-25.068-25.065m0-5.936c17.122 0 31 13.88 31 31.001 0 17.12-13.878 30.999-31 30.999-17.12 0-31-13.88-31-30.999C202 138.88 215.88 125 233 125" mask="url(#d)"/>
                <path fill="#FFF" d="M253.219 263.788l3.33 2.226 1.392 3.686c.484 1.433-.885 1.775-1.48.553l-3.242-6.465zm-5.453-67.005l-5.62 2.1.755 2.002c.65-.53 1.396-.96 2.226-1.273a7.888 7.888 0 0 1 3.532-.46l-.893-2.369zm3.591 17.116c9.804 10.372 16.5 17.026 25.192 33.137l-9.413 3.513.604 1.594 9.619-3.587a229.324 229.324 0 0 1 3.487 6.895l1.3-4.84a104.12 104.12 0 0 0-1.363-3.372.852.852 0 0 0-.66-1.516c-6.057-13.612-14.977-25.736-24.776-36.43a7.797 7.797 0 0 1-3.99 4.606zm-.595.261c-.04.016-.083.034-.124.047a7.843 7.843 0 0 1-5.941-.175c-.24 14.222 1.097 28.902 5.46 42.856a.854.854 0 0 0-.5 1.098.862.862 0 0 0 1.022.522c.377 1.138.776 2.276 1.194 3.4l4.182 2.798a233.149 233.149 0 0 1-1.939-7.476l9.465-3.535-.602-1.594-9.256 3.456c-4.114-17.806-3.478-27.198-2.96-41.397zm-4.602-11.81c-2.533.944-3.815 3.755-2.865 6.271.952 2.521 3.777 3.794 6.31 2.85 2.533-.945 3.815-3.756 2.865-6.273-.95-2.52-3.775-3.793-6.31-2.849zm-.746-1.978c-3.632 1.356-5.47 5.38-4.11 8.991 1.364 3.614 5.413 5.443 9.047 4.084 3.632-1.351 5.47-5.379 4.107-8.99-1.364-3.61-5.412-5.443-9.044-4.085zm3.976 7.577l-3.286-1.484c-.089.346-.075.724.06 1.088a1.839 1.839 0 0 0 3.226.396zm-2.153-2.746a1.798 1.798 0 0 0-.762.54l3.22 1.45c.048-.299.02-.618-.095-.922a1.837 1.837 0 0 0-2.363-1.068zm-.79-2.094c2.11-.787 4.465.277 5.259 2.375a4.052 4.052 0 0 1-2.389 5.226 4.088 4.088 0 0 1-5.258-2.374 4.05 4.05 0 0 1 2.388-5.227zm-8.148-13.405l6.287-2.346a.46.46 0 0 1 .597.268l2.884 7.637a.465.465 0 0 1-.272.594l-6.287 2.345a.468.468 0 0 1-.597-.267l-2.881-7.64a.459.459 0 0 1 .269-.591zm25.52 58.587l.165-.06c.678-.25 1.44.092 1.696.764l1.927 5.112a1.311 1.311 0 0 1-.77 1.686l-.164.063a1.323 1.323 0 0 1-1.694-.769l-1.93-5.11c-.255-.674.091-1.43.77-1.686zm31.74.128c-2.207.821-4.414 1.646-6.621 2.47l.7 1.857c2.208-.825 4.415-1.648 6.623-2.474l-.701-1.853zm-21.844-57.867l.002.01c.161.99-1.133 1.535-1.655.622.054 1.558-2.608 2.257-3.306 1.239l-.005-.005v.005c.14.973-1.133 1.506-1.655.596l.047-5.692 2.77-1.032 3.802 4.257zm-4.45-4.99l-2.093-2.337-.024 3.126 2.116-.79zm4.961 6.341a1.905 1.905 0 0 1-1.685.641c-.707.972-2.146 1.469-3.288 1.208a1.891 1.891 0 0 1-1.635.638l20.999 55.646 6.615-2.469-21.006-55.664zm29.67 53.402l.7 1.857c-2.206.823-4.414 1.649-6.621 2.47l-.699-1.854c2.205-.82 4.412-1.648 6.62-2.473zm-21.842-57.868v.018c.16.987-1.134 1.531-1.658.618.056 1.554-2.603 2.258-3.304 1.235l-.005-.004v.009c.14.973-1.135 1.506-1.655.595l.047-5.691 2.77-1.033 3.805 4.253zm-4.454-4.986l-2.091-2.34-.025 3.132 2.116-.792zm4.962 6.338a1.886 1.886 0 0 1-1.684.643c-.708.969-2.147 1.47-3.289 1.212a1.899 1.899 0 0 1-1.635.632l20.999 55.646c2.205-.821 4.41-1.642 6.615-2.47l-21.006-55.663zm29.67 53.405c-2.207.828-4.415 1.649-6.62 2.474l.701 1.853c2.205-.82 4.413-1.646 6.62-2.467l-.701-1.86zm-21.842-57.867l-3.804-4.257-2.77 1.036-.048 5.695c.522.904 1.795.373 1.655-.599v-.009l.005.005c.699 1.019 3.363.321 3.304-1.24.525.916 1.818.37 1.66-.618l-.002-.013zm-4.453-4.99L283.845 177l-.025 3.128 2.117-.791zm4.961 6.344l21.006 55.663-6.615 2.467-20.999-55.645a1.89 1.89 0 0 0 1.635-.637c1.142.259 2.58-.238 3.29-1.207.62.087 1.272-.16 1.683-.641zm5.68 65.453l1.75 4.635c-2.205.825-4.41 1.646-6.615 2.471l-1.75-4.637a3944.6 3944.6 0 0 1 6.614-2.47zm8.335-3.115a3944.6 3944.6 0 0 1-6.615 2.47l1.753 4.636c2.203-.82 4.408-1.646 6.613-2.467l-1.75-4.639zm8.337-3.11l1.75 4.64c-2.205.82-4.41 1.64-6.615 2.468l-1.748-4.639c2.202-.82 4.408-1.646 6.613-2.47zm-30.875 7.999l1.834 6.976c.357 1.309-.9 1.945-1.482.553l-1.386-3.677 1.034-3.852zM145 154.243L220.834 139 229 179.76 153.164 195z" mask="url(#d)"/>
                <path fill="#A5DBE5" d="M149 157.023L218.976 143 226 177.973 156.026 192z" mask="url(#d)"/>
                <path fill="#14B0BF" d="M155.178 192L153 180.99l8.356-19.84 15.512 6.56 5.171-5.265 8.472 4.914L199.003 153l15.901 9.395 6.196-4.34 3.9 19.726z" mask="url(#d)"/>
            </g>
        </g>
    </g>
</svg>
